<svg width="267" height="83" viewBox="0 0 267 83" fill="none" xmlns="http://www.w3.org/2000/svg">
<g filter="url(#filter0_ii_2_8072)">
<rect width="266.478" height="82.6087" rx="41.3043" fill="black" fill-opacity="0.01"/>
<rect x="1.23913" y="1.23913" width="264" height="80.1304" rx="40.0652" stroke="white" stroke-opacity="0.1" stroke-width="2.47826"/>
<path d="M37.5181 31.529L52.1295 26.6585C58.6865 24.4728 62.249 28.0525 60.0806 34.6096L55.2101 49.221C51.9402 59.048 46.5706 59.048 43.3007 49.221L41.855 44.8841L37.5181 43.4384C27.6911 40.1685 27.6911 34.8161 37.5181 31.529Z" stroke="white" stroke-width="3.44203" stroke-linecap="round" stroke-linejoin="round"/>
<path d="M42.182 44.144L48.3432 37.9656" stroke="white" stroke-width="3.44203" stroke-linecap="round" stroke-linejoin="round"/>
<path d="M91.4714 50.3453V53.8044H75.4957V28.0757H79.4897V50.3453H91.4714ZM92.3651 53.8044V35.0472H96.2164V53.8044H92.3651ZM94.2907 32.3014C93.0604 32.3014 92.062 31.3207 92.062 30.1083C92.062 28.878 93.0604 27.8974 94.2907 27.8974C95.5388 27.8974 96.5373 28.878 96.5373 30.1083C96.5373 31.3207 95.5388 32.3014 94.2907 32.3014ZM105.009 34.7441C107.719 34.7441 109.858 36.117 110.964 38.2744H111.053V35.0472H114.797V60.0092H110.928V50.6484H110.857C109.787 52.7524 107.594 54.1253 104.92 54.1253C100.212 54.1253 97.1278 50.3453 97.1278 44.4258C97.1278 38.5062 100.212 34.7441 105.009 34.7441ZM105.954 50.8624C108.913 50.8624 110.946 48.3305 110.946 44.4258C110.946 40.5388 108.913 37.9891 105.954 37.9891C102.94 37.9891 101.068 40.4497 101.068 44.4258C101.068 48.4019 102.94 50.8624 105.954 50.8624ZM132.505 35.0472V53.8044H128.814V50.6306H128.725C127.691 52.8772 125.783 54.1431 122.912 54.1431C118.829 54.1431 116.333 51.4865 116.333 47.1894V35.0472H120.184V46.4406C120.184 49.2934 121.539 50.8267 124.196 50.8267C126.977 50.8267 128.653 48.9011 128.653 45.977V35.0472H132.505ZM134.254 53.8044V35.0472H138.105V53.8044H134.254ZM136.18 32.3014C134.95 32.3014 133.951 31.3207 133.951 30.1083C133.951 28.878 134.95 27.8974 136.18 27.8974C137.428 27.8974 138.426 28.878 138.426 30.1083C138.426 31.3207 137.428 32.3014 136.18 32.3014ZM146.898 54.1253C142.155 54.1253 139.017 50.3453 139.017 44.4258C139.017 38.5062 142.155 34.7441 146.862 34.7441C149.554 34.7441 151.694 36.0992 152.746 38.1674H152.817V28.0757H156.686V53.8044H152.942V50.6128H152.871C151.765 52.7524 149.626 54.1253 146.898 54.1253ZM147.914 37.9891C144.865 37.9891 142.957 40.4853 142.957 44.4258C142.957 48.384 144.865 50.8624 147.914 50.8624C150.874 50.8624 152.853 48.3484 152.853 44.4258C152.853 40.5388 150.874 37.9891 147.914 37.9891ZM186.306 43.1063C186.306 50.0779 182.188 54.2323 175.216 54.2323C167.852 54.2323 163.217 49.0794 163.217 40.8241C163.217 32.7115 167.834 27.6477 175.163 27.6477C180.886 27.6477 185.219 31.0354 186.11 36.1705H182.009C181.047 32.9789 178.532 31.1424 175.18 31.1424C170.259 31.1424 167.3 34.7441 167.3 40.7884C167.3 46.9398 170.349 50.7376 175.252 50.7376C179.424 50.7376 182.312 48.0631 182.366 44.1583V43.7126H175.715V40.4853H186.306V43.1063ZM187.699 53.8044V28.0757H191.551V53.8044H187.699ZM199.879 51.0764C202.572 51.0764 204.676 49.222 204.676 46.7793V45.2994L200.058 45.5847C197.758 45.7452 196.456 46.7615 196.456 48.3662C196.456 50.0066 197.811 51.0764 199.879 51.0764ZM198.809 54.1253C195.136 54.1253 192.569 51.8431 192.569 48.4732C192.569 45.1925 195.083 43.1777 199.541 42.928L204.676 42.6249V41.1807C204.676 39.0946 203.267 37.8465 200.913 37.8465C198.685 37.8465 197.294 38.9163 196.955 40.5923H193.318C193.532 37.2046 196.42 34.7084 201.056 34.7084C205.603 34.7084 208.509 37.1155 208.509 40.8776V53.8044H204.818V50.7198H204.729C203.641 52.8059 201.27 54.1253 198.809 54.1253ZM209.724 40.3605C209.724 37.0085 212.683 34.7084 217.07 34.7084C221.242 34.7084 224.166 37.0441 224.291 40.3784H220.671C220.493 38.6845 219.12 37.6325 216.963 37.6325C214.876 37.6325 213.486 38.6488 213.486 40.1287C213.486 41.2877 214.413 42.0722 216.356 42.5536L219.512 43.2847C223.292 44.194 224.719 45.6204 224.719 48.384C224.719 51.8074 221.527 54.161 216.927 54.161C212.487 54.161 209.545 51.8609 209.242 48.4197H213.058C213.361 50.2205 214.752 51.219 217.105 51.219C219.423 51.219 220.85 50.2562 220.85 48.7406C220.85 47.546 220.136 46.8863 218.175 46.3871L214.823 45.5669C211.435 44.7467 209.724 42.9815 209.724 40.3605ZM225.184 40.3605C225.184 37.0085 228.144 34.7084 232.53 34.7084C236.703 34.7084 239.627 37.0441 239.751 40.3784H236.132C235.954 38.6845 234.581 37.6325 232.423 37.6325C230.337 37.6325 228.946 38.6488 228.946 40.1287C228.946 41.2877 229.874 42.0722 231.817 42.5536L234.973 43.2847C238.753 44.194 240.179 45.6204 240.179 48.384C240.179 51.8074 236.988 54.161 232.388 54.161C227.948 54.161 225.006 51.8609 224.703 48.4197H228.519C228.822 50.2205 230.212 51.219 232.566 51.219C234.884 51.219 236.31 50.2562 236.31 48.7406C236.31 47.546 235.597 46.8863 233.636 46.3871L230.284 45.5669C226.896 44.7467 225.184 42.9815 225.184 40.3605Z" fill="white"/>
</g>
<defs>
<filter id="filter0_ii_2_8072" x="0" y="0" width="266.478" height="82.6087" filterUnits="userSpaceOnUse" color-interpolation-filters="sRGB">
<feFlood flood-opacity="0" result="BackgroundImageFix"/>
<feBlend mode="normal" in="SourceGraphic" in2="BackgroundImageFix" result="shape"/>
<feColorMatrix in="SourceAlpha" type="matrix" values="0 0 0 0 0 0 0 0 0 0 0 0 0 0 0 0 0 0 127 0" result="hardAlpha"/>
<feMorphology radius="6.04864" operator="dilate" in="SourceAlpha" result="effect1_innerShadow_2_8072"/>
<feOffset dx="-6.04864" dy="-6.04864"/>
<feGaussianBlur stdDeviation="1.51216"/>
<feComposite in2="hardAlpha" operator="arithmetic" k2="-1" k3="1"/>
<feColorMatrix type="matrix" values="0 0 0 0 0.701961 0 0 0 0 0.701961 0 0 0 0 0.701961 0 0 0 1 0"/>
<feBlend mode="plus-lighter" in2="shape" result="effect1_innerShadow_2_8072"/>
<feColorMatrix in="SourceAlpha" type="matrix" values="0 0 0 0 0 0 0 0 0 0 0 0 0 0 0 0 0 0 127 0" result="hardAlpha"/>
<feMorphology radius="6.04864" operator="dilate" in="SourceAlpha" result="effect2_innerShadow_2_8072"/>
<feOffset dx="6.04864" dy="6.04864"/>
<feGaussianBlur stdDeviation="1.51216"/>
<feComposite in2="hardAlpha" operator="arithmetic" k2="-1" k3="1"/>
<feColorMatrix type="matrix" values="0 0 0 0 0.701961 0 0 0 0 0.701961 0 0 0 0 0.701961 0 0 0 1 0"/>
<feBlend mode="plus-lighter" in2="effect1_innerShadow_2_8072" result="effect2_innerShadow_2_8072"/>
</filter>
</defs>
</svg>
